<?xml version="1.0" encoding="utf-8"?>
<!-- Generator: Adobe Illustrator 19.1.0, SVG Export Plug-In . SVG Version: 6.00 Build 0)  -->
<svg version="1.1" id="Ebene_1" xmlns="http://www.w3.org/2000/svg" xmlns:xlink="http://www.w3.org/1999/xlink" x="0px" y="0px"
	 viewBox="-247 382.3 100 76.6" style="enable-background:new -247 382.3 100 76.6;" xml:space="preserve">
<g>
	<path d="M-153.1,404.5h-8.5c-3.3,0-6.1,2.7-6.1,6.1v9h-58.8v-9c0-3.3-2.7-6.1-6.1-6.1h-8.5c-3.3,0-6.1,2.7-6.1,6.1v22.9
		c0,3.3,2.7,6.1,6.1,6.1h8.5h70.9h0.8h7.7c3.3,0,6.1-2.7,6.1-6.1v-22.9C-147,407.3-149.7,404.5-153.1,404.5z"/>
	<path d="M-232.4,400.3c5.7,0,10.3,4.6,10.3,10.3v4.7h50.3v-4.7c0-5.7,4.6-10.3,10.3-10.3h6v-0.2c0-6.8-5.5-12.2-12.2-12.2h-58.4
		c-6.8,0-12.2,5.5-12.2,12.2v0.2C-238.4,400.3-232.4,400.3-232.4,400.3z"/>
	<rect x="-240.9" y="443.9" width="14.7" height="5.2"/>
	<rect x="-167.1" y="443.9" width="14.7" height="5.2"/>
</g>
</svg>
